<?xml version="1.0" encoding="utf-8"?>
<!-- Generator: Adobe Illustrator 27.7.0, SVG Export Plug-In . SVG Version: 6.00 Build 0)  -->
<svg version="1.1" id="Layer_1" xmlns="http://www.w3.org/2000/svg" xmlns:xlink="http://www.w3.org/1999/xlink" x="0px" y="0px"
	 viewBox="0 0 88.7 120.8" style="enable-background:new 0 0 88.7 120.8;" xml:space="preserve">
<style type="text/css">
	.st0{fill:#FFFFFF;}
</style>
<path id="Path_332" class="st0" d="M88.7,0H0v62c0,7.8,1.3,24.6,11.4,35.4c12,12.9,27.6,20.8,30.6,22.3l2.3,1.1l2.3-1.1
	c3-1.5,18.6-9.4,30.6-22.3c10-10.8,11.3-27.6,11.4-35.4V0z M13.7,58.5c0.1-0.5,0.3-1,0.5-1.5l20.7,13l-3.4,2.1
	c-5.2,3.3-12.1,1.7-15.3-3.5l-1.1-1.7C13.6,64.4,13,61.3,13.7,58.5 M15.2,32.1l1.1-1.7c3.3-5.2,10.1-6.8,15.3-3.5l3.3,2.1L14.2,41.9
	C13,38.6,13.4,35,15.2,32.1 M39.4,106.2c-7.5-4.4-14.3-9.8-20.3-16c-2.5-2.8-4.4-6-5.6-9.6c3.6,2.4,7.8,3.7,12.1,3.7
	c4.1,0,8-1.1,11.5-3.3l2.3-1.4L39.4,106.2z M39.4,60.3L22,49.4l17.4-10.9L39.4,60.3z M69.6,90.2c-5.8,6-12.4,11.3-19.6,15.6V79.4
	l2.5,1.5c3.4,2.2,7.4,3.3,11.5,3.3c3.9,0,7.7-1,11-3C73.7,84.6,71.9,87.6,69.6,90.2 M67.6,49.4L50,60.5V38.4L67.6,49.4z M54.7,28.9
	l3.2-2c5.2-3.3,12.1-1.7,15.3,3.5l1.1,1.7c1.8,2.9,2.2,6.5,1,9.7L54.7,28.9z M74.4,66.8l-1.1,1.7C70.1,73.7,63.2,75.3,58,72L54.7,70
	L75.4,57C76.6,60.3,76.2,63.9,74.4,66.8 M52.3,18l-7.5,4.7l-7.6-4.8c-8.4-5.2-19.2-4.2-26.4,2.6c0-3.9,0.1-7.4,0.1-10h66.8
	c0,2.4,0.1,5.6,0.1,9.3C70.6,13.7,60.3,13,52.3,18"/>
</svg>
